Coordinates
version=1
nRows=14
nColumns=36
inDegrees=yes

Units are S.I. units (second, meters, Newtons, ...)
If the header above contains a line with 'inDegrees', this indicates whether rotational values are in degrees (yes) or radians (no).

endheader
time	pelvis_tilt	pelvis_list	pelvis_rotation	pelvis_tx	pelvis_ty	pelvis_tz	hip_flexion_r	hip_adduction_r	hip_rotation_r	knee_angle_r	knee_angle_r_beta	ankle_angle_r	subtalar_angle_r	mtp_angle_r	hip_flexion_l	hip_adduction_l	hip_rotation_l	knee_angle_l	knee_angle_l_beta	ankle_angle_l	subtalar_angle_l	mtp_angle_l	lumbar_extension	lumbar_bending	lumbar_rotation	arm_flex_r	arm_add_r	arm_rot_r	elbow_flex_r	pro_sup_r	arm_flex_l	arm_add_l	arm_rot_l	elbow_flex_l	pro_sup_l
      5.90000000	    -34.77433787	     -1.50058322	     -0.56924044	      1.24260189	      0.59936085	      0.01302192	     91.91182532	    -24.29805265	     -7.37147240	     92.49138713	      1.61427924	     36.74010982	    -10.77121556	     -7.49999987	     96.28652775	    -22.53019063	     -1.44652062	     90.60373061	      1.58133341	     30.28176858	    -16.55684727	     -7.49999987	     -9.40762273	      1.55081405	      7.64578061	     71.44337481	     -4.53486696	     73.64638093	    131.47981667	     96.21644392	     68.10188021	      4.18576458	     75.97575162	    111.86491172	    100.86843559
      5.91666670	    -35.08395155	     -1.64084492	     -0.88275013	      1.24085761	      0.58754344	      0.01336297	     93.89876342	    -24.09201315	     -6.81849963	     94.68797898	      1.65261700	     37.34541211	    -11.29359145	     -7.49999987	     98.75998715	    -22.78381660	     -0.22688204	     92.83762362	      1.62032220	     30.19305838	    -17.06021510	     -7.49999987	    -10.10249594	      1.66015661	      8.03455395	     72.01467622	     -5.05143483	     73.75504055	    132.27437005	     95.86109553	     68.72769183	      4.33978605	     75.33827927	    112.29514169	    100.65145455
      5.93333330	    -35.16637735	     -1.67151201	     -1.20280896	      1.23349008	      0.57284788	      0.01512760	     95.86976092	    -23.85989912	     -6.11100609	     96.94028863	      1.69192721	     37.82031979	    -11.86413934	     -7.49999987	    101.08330361	    -23.09364835	      0.86979031	     95.14032373	      1.66051190	     30.15049823	    -17.35821240	     -7.49999987	    -10.89465572	      1.66727807	      8.11123442	     72.95931978	     -5.32972389	     73.53932933	    132.23765640	     95.11634144	     70.13214690	      4.65664490	     75.40955757	    112.58709972	     99.86088529
      5.95000000	    -35.72320865	     -1.86354501	     -1.55334255	      1.23259229	      0.56353768	      0.01640532	     98.07093311	    -23.61111437	     -5.76314183	     98.91364693	      1.72636881	     38.07796469	    -12.41751592	     -7.49999987	    103.88922827	    -23.38040834	      2.16183194	     97.20416372	      1.69653270	     29.82528507	    -17.83008913	     -7.49999987	    -11.57626544	      1.84300795	      9.11220666	     73.18603097	     -6.83894283	     74.20858563	    131.95079616	     94.65042042	     70.77558265	      4.16181092	     76.28577538	    110.40748604	     99.93974147
      5.96666670	    -35.81880461	     -1.86576575	     -1.78331693	      1.22690834	      0.55434373	      0.01966843	     99.91988169	    -23.46367291	     -5.15675202	    100.81936086	      1.75962980	     38.33514063	    -12.81396724	     -7.49999987	    106.03148822	    -23.61335708	      3.15066243	     99.09665996	      1.72956299	     29.60657268	    -18.02582866	     -7.49999987	    -12.79006727	      1.62263639	      9.56831655	     73.94558201	     -6.92570707	     74.30330403	    131.98081486	     94.67764753	     71.79390910	      4.13516163	     75.97262003	    110.38532255	    100.00022482
      5.98333330	    -36.07816800	     -2.00179119	     -2.08779415	      1.21635105	      0.53926580	      0.02727771	    101.88472114	    -23.08085253	     -4.74347666	    102.66875485	      1.79190781	     38.41369422	    -13.19023717	     -7.49999987	    108.51376629	    -23.98127627	      4.36162969	    100.97661951	      1.76237448	     29.20790946	    -18.08994219	     -7.49999987	    -13.57466453	      1.39452991	     10.25075934	     75.65697796	     -7.08530937	     73.67390940	    131.75552359	     93.02935873	     73.34545732	      4.24249512	     75.33208205	    111.56712979	     98.28204925
      6.00000000	    -36.27555202	     -2.03057851	     -2.39677519	      1.22704604	      0.53342647	      0.02148741	    103.56325361	    -22.70851544	     -4.34674004	    104.29521129	      1.82029483	     38.41344719	    -13.70452112	     -7.49999987	    110.51798452	    -24.28256435	      5.42755821	    102.53707322	      1.78960953	     28.88650473	    -18.17474907	     -7.49999987	    -14.33945392	      1.30687965	     10.64098067	     76.24700847	     -6.74561410	     75.11882885	    132.90048133	     93.21338861	     72.88700782	      4.16364398	     74.74718439	    111.74811239	     98.58308578
      6.01666670	    -36.52591976	     -2.07598765	     -2.64985816	      1.22183087	      0.52954211	      0.02567953	    104.98278853	    -22.38322176	     -4.05340644	    105.59002276	      1.84289355	     38.42841317	    -13.98712275	     -7.49999987	    112.30892114	    -24.53761905	      6.38895748	    103.80428731	      1.81172659	     28.75016769	    -17.92442704	     -7.49999987	    -15.48205844	      1.26583354	     11.37572606	     76.31615138	     -7.26234972	     76.04216350	    131.85417963	     93.17665902	     73.00279886	      4.12390896	     75.43327774	    109.82212586	     98.93392035
      6.03333330	    -36.74832021	     -2.07384166	     -2.79849313	      1.21592074	      0.51198718	      0.02768566	    106.61727308	    -22.14089210	     -3.57931596	    107.11135624	      1.86944583	     38.49406111	    -14.06683529	     -7.49999987	    114.12837492	    -24.74245131	      7.27471617	    105.15335129	      1.83527220	     28.62702443	    -17.59711404	     -7.49999987	    -16.02800440	      0.96566008	     11.95674137	     77.59472527	     -6.91022786	     77.03827582	    134.08611947	     91.28742465	     73.66278868	      5.41806674	     74.88479825	    111.49661778	     97.16013356
      6.05000000	    -36.67945373	     -1.98002588	     -2.91878512	      1.21514206	      0.49879272	      0.02096482	    108.10961475	    -22.04919384	     -3.01992508	    108.69013059	      1.89700064	     38.52721283	    -14.14811750	     -7.49999987	    115.62617751	    -24.84166179	      8.04958325	    106.56114479	      1.85984283	     28.50791195	    -17.40013654	     -7.49999987	    -16.72091535	      0.92156441	     12.13188210	     77.54617099	     -7.76516026	     77.22527427	    133.98284437	     88.81398662	     73.81778808	      6.15568978	     74.40726670	    110.93359611	     94.89947999
      6.06666670	    -36.26574298	     -1.94323159	     -2.94687784	      1.22154897	      0.49504700	      0.02609974	    108.98226199	    -22.03702643	     -2.50663189	    110.14879745	      1.92245918	     38.52472541	    -14.22019993	     -7.49999987	    116.50775670	    -24.77984962	      8.80658761	    107.80236784	      1.88150626	     28.37188228	    -17.38173132	     -7.49999987	    -17.85563397	      0.79832071	     12.27134934	     76.87623523	     -8.04586140	     77.57299125	    133.78632550	     88.85175599	     73.23830127	      6.12050560	     74.57724699	    111.15752297	     95.00186604
      6.08333330	    -36.74290114	     -1.69702926	     -3.01738917	      1.21569786	      0.48820489	      0.02201900	    110.61460913	    -21.95680606	     -1.94107485	    111.29441634	      1.94245400	     38.56203330	    -14.07338412	     -7.49999987	    117.93214711	    -24.85043030	      9.20479397	    108.79123146	      1.89876519	     28.50187762	    -16.78015678	     -7.49999987	    -18.13724298	      0.73757132	     12.38288004	     77.27529821	     -8.66320355	     78.30855070	    135.06089481	     88.96599381	     72.90812668	      6.99434633	     73.63400631	    112.69431334	     95.34139109
      6.10000000	    -36.74657030	     -1.51145407	     -3.02768390	      1.21151797	      0.48545740	      0.02510123	    111.54646931	    -21.91411248	     -1.46676490	    112.19570569	      1.95818447	     38.47609325	    -13.94890668	     -7.49999987	    118.67624249	    -24.86008131	      9.52096379	    109.58321830	      1.91258796	     28.79228053	    -16.15555773	     -7.49999987	    -19.06853348	      0.80181940	     12.70044250	     77.53036726	     -8.63962010	     77.24735839	    134.07091575	     88.77671700	     72.83914448	      5.95784206	     73.54430022	    111.88930336	     96.08355721
      6.11666670	    -36.68612829	     -1.27821162	     -2.91565580	      1.20660951	      0.48255206	      0.02894842	    112.36405926	    -21.87517527	     -0.97068813	    112.92073980	      1.97083870	     38.25428625	    -13.84122033	     -7.49999987	    119.12421449	    -24.80329337	      9.61344769	    110.08817658	      1.92140115	     28.82915137	    -15.77812582	     -7.49999987	    -20.26599626	      0.59001944	     13.21037226	     77.87878898	    -10.67318312	     78.13039010	    133.35149744	     88.22415819	     73.64033273	      5.86406015	     74.22032691	    111.17397608	     97.76241698
